<!DOCTYPE svg PUBLIC "-//W3C//DTD SVG 1.1//EN" "http://www.w3.org/Graphics/SVG/1.1/DTD/svg11.dtd">

<!-- Uploaded to: SVG Repo, www.svgrepo.com, Transformed by: SVG Repo Mixer Tools -->
<svg width="100px" height="100px" viewBox="0 0 24 24" fill="none" xmlns="http://www.w3.org/2000/svg" stroke="#ffffff" data-darkreader-inline-stroke="" style="--darkreader-inline-stroke: #dcdad7;">

<g id="SVGRepo_bgCarrier" stroke-width="0"/>

<g id="SVGRepo_tracerCarrier" stroke-linecap="round" stroke-linejoin="round" stroke="#CCCCCC" stroke-width="0.096" data-darkreader-inline-stroke="" style="--darkreader-inline-stroke: #b8b4ae;"/>

<g id="SVGRepo_iconCarrier"> <path d="M7 21C8.65685 21 10 19.6569 10 18C10 16.3431 8.65685 15 7 15C5.34315 15 4 16.3431 4 18C4 19.6569 5.34315 21 7 21Z" stroke="#ffffff" stroke-width="1.512" data-darkreader-inline-stroke="" style="--darkreader-inline-stroke: #dcdad7;"/> <path d="M17 21C18.6569 21 20 19.6569 20 18C20 16.3431 18.6569 15 17 15C15.3431 15 14 16.3431 14 18C14 19.6569 15.3431 21 17 21Z" stroke="#ffffff" stroke-width="1.512" data-darkreader-inline-stroke="" style="--darkreader-inline-stroke: #dcdad7;"/> <path d="M16.0001 3L8.66479 15.2255" stroke="#ffffff" stroke-width="1.512" stroke-linecap="round" stroke-linejoin="round" data-darkreader-inline-stroke="" style="--darkreader-inline-stroke: #dcdad7;"/> <path d="M8.00007 3L15.3066 15.1776" stroke="#ffffff" stroke-width="1.512" stroke-linecap="round" stroke-linejoin="round" data-darkreader-inline-stroke="" style="--darkreader-inline-stroke: #dcdad7;"/> </g>

</svg>